<svg width="402" height="270" viewBox="0 0 402 270" fill="none" xmlns="http://www.w3.org/2000/svg">
<rect x="4" y="4" width="394" height="262" fill="#237BB1"/>
<path d="M398 4H4V266H398V4Z" stroke="#041016" stroke-width="6.91" stroke-miterlimit="10"/>
<path d="M124.583 96.5223L124.585 96.5216C129.484 95.0367 135.111 95.0849 140.678 95.9181C146.066 96.7246 151.43 98.2718 156.077 99.9119L168.43 65.3833C134.601 53.4119 110.116 58.9085 94.0704 72.1248C77.9242 85.4242 70.23 106.616 70.22 126L124.583 96.5223ZM124.583 96.5223C117.031 98.8493 112.614 105.006 110.09 111.133C107.567 117.261 106.9 123.445 106.9 126C106.9 130.864 104.968 135.529 101.528 138.968C98.0889 142.408 93.424 144.34 88.56 144.34C83.6959 144.34 79.031 142.408 75.5916 138.968C72.1523 135.529 70.22 130.864 70.22 126L124.583 96.5223Z" fill="#041016" stroke="#041016"/>
<path d="M144.43 82.83L144.43 82.8297C144.428 79.202 145.502 75.6552 147.516 72.6379C149.53 69.6206 152.394 67.2684 155.745 65.8788C159.096 64.4892 162.783 64.1246 166.342 64.8312C169.9 65.5378 173.169 67.2837 175.735 69.8482C178.3 72.4127 180.048 75.6806 180.757 79.2384C181.465 82.7963 181.102 86.4844 179.715 89.8361C178.327 93.1879 175.976 96.0528 172.96 98.0685C169.944 100.084 166.397 101.16 162.77 101.16H162.769C160.361 101.161 157.977 100.688 155.752 99.7675C153.527 98.8469 151.505 97.4969 149.802 95.7947C148.099 94.0925 146.748 92.0714 145.826 89.8468C144.904 87.6223 144.43 85.2379 144.43 82.83Z" fill="#041016" stroke="#041016"/>
<path d="M106.9 76.9101V190.68H70.22V76.9101C70.22 72.046 72.1522 67.3812 75.5916 63.9417C79.031 60.5023 83.6959 58.5701 88.56 58.5701C93.424 58.5701 98.0889 60.5023 101.528 63.9417C104.968 67.3812 106.9 72.046 106.9 76.9101Z" fill="#041016" stroke="#041016"/>
<mask id="path-6-inside-1_414_962" fill="white">
<path d="M103.41 65.3101C80.51 77.3901 69.73 103 69.72 126C69.72 130.997 71.7049 135.789 75.2381 139.322C78.7713 142.855 83.5633 144.84 88.56 144.84C93.5566 144.84 98.3487 142.855 101.882 139.322C105.415 135.789 107.4 130.997 107.4 126V76.9101C107.402 72.7049 105.993 68.6205 103.4 65.3101"/>
</mask>
<path d="M103.41 65.3101C80.51 77.3901 69.73 103 69.72 126C69.72 130.997 71.7049 135.789 75.2381 139.322C78.7713 142.855 83.5633 144.84 88.56 144.84C93.5566 144.84 98.3487 142.855 101.882 139.322C105.415 135.789 107.4 130.997 107.4 126V76.9101C107.402 72.7049 105.993 68.6205 103.4 65.3101" fill="#041016"/>
<path d="M69.72 126L68.72 126V126H69.72ZM107.4 76.9101L106.4 76.9097V76.9101H107.4ZM102.943 64.4256C79.6283 76.7246 68.7301 102.739 68.72 126L70.72 126C70.7299 103.261 81.3917 78.0555 103.877 66.1945L102.943 64.4256ZM68.72 126C68.72 131.262 70.8102 136.308 74.531 140.029L75.9452 138.615C72.5995 135.269 70.72 130.732 70.72 126H68.72ZM74.531 140.029C78.2517 143.75 83.2981 145.84 88.56 145.84V143.84C83.8285 143.84 79.2908 141.96 75.9452 138.615L74.531 140.029ZM88.56 145.84C93.8219 145.84 98.8682 143.75 102.589 140.029L101.175 138.615C97.8291 141.96 93.2914 143.84 88.56 143.84V145.84ZM102.589 140.029C106.31 136.308 108.4 131.262 108.4 126H106.4C106.4 130.732 104.52 135.269 101.175 138.615L102.589 140.029ZM108.4 126V76.9101H106.4V126H108.4ZM108.4 76.9104C108.402 72.4815 106.918 68.18 104.187 64.6934L102.613 65.9267C105.068 69.0611 106.401 72.9282 106.4 76.9097L108.4 76.9104Z" fill="#041016" mask="url(#path-6-inside-1_414_962)"/>
<path d="M106.9 191.3C106.9 201.429 98.6889 209.64 88.56 209.64C78.4311 209.64 70.22 201.429 70.22 191.3C70.22 181.171 78.4311 172.96 88.56 172.96C98.6889 172.96 106.9 181.171 106.9 191.3Z" fill="#041016" stroke="#041016"/>
<path d="M213.84 211.38C208.976 211.38 204.311 209.448 200.872 206.008C197.432 202.569 195.5 197.904 195.5 193.04V76.84C195.5 71.9759 197.432 67.3111 200.872 63.8717C204.311 60.4322 208.976 58.5 213.84 58.5C218.704 58.5 223.369 60.4322 226.808 63.8717C230.248 67.3111 232.18 71.9759 232.18 76.84V193.04C232.177 197.903 230.244 202.567 226.805 206.005C223.367 209.444 218.703 211.377 213.84 211.38Z" fill="#041016" stroke="#041016"/>
<path d="M233.18 76.8406C233.184 73.5036 232.318 70.2265 230.671 67.3307C275.646 42.8416 331.714 74.2476 332.078 125.28H295.397C295.353 122.436 294.895 119.613 294.037 116.899L294.036 116.898C288.746 100.264 273.252 93.9653 259.146 96.0655C247.372 97.8185 236.462 105.44 233.18 117.857L233.18 76.8406ZM233.18 76.8406L232.68 76.84M233.18 76.8406L233.18 76.84H232.68M232.68 76.84C232.684 73.5875 231.839 70.3933 230.233 67.5714L232.68 76.84ZM332.578 125.28C332.214 73.8414 275.709 42.2251 230.419 66.8991L332.578 125.28Z" fill="#041016" stroke="#041016"/>
<mask id="path-11-inside-2_414_962" fill="white">
<path d="M229.98 67.1299C220.829 72.1993 212.961 79.2975 206.98 87.8799C199.201 98.9867 195.032 112.22 195.04 125.78C195.04 130.777 197.025 135.569 200.558 139.102C204.091 142.635 208.883 144.62 213.88 144.62C218.877 144.62 223.669 142.635 227.202 139.102C230.735 135.569 232.72 130.777 232.72 125.78V76.8399C232.723 73.4175 231.789 70.0597 230.02 67.1299"/>
</mask>
<path d="M229.98 67.1299C220.829 72.1993 212.961 79.2975 206.98 87.8799C199.201 98.9867 195.032 112.22 195.04 125.78C195.04 130.777 197.025 135.569 200.558 139.102C204.091 142.635 208.883 144.62 213.88 144.62C218.877 144.62 223.669 142.635 227.202 139.102C230.735 135.569 232.72 130.777 232.72 125.78V76.8399C232.723 73.4175 231.789 70.0597 230.02 67.1299" fill="#041016"/>
<path d="M206.98 87.8799L207.799 88.4535L207.8 88.4517L206.98 87.8799ZM195.04 125.78L196.04 125.78L196.04 125.779L195.04 125.78ZM232.72 76.8399L231.72 76.8391V76.8399H232.72ZM229.495 66.2551C220.211 71.3986 212.228 78.6004 206.16 87.3081L207.8 88.4517C213.695 79.9946 221.448 73 230.465 68.0046L229.495 66.2551ZM206.161 87.3062C198.264 98.5813 194.032 112.015 194.04 125.78L196.04 125.779C196.032 112.425 200.138 99.3921 207.799 88.4535L206.161 87.3062ZM194.04 125.78C194.04 131.042 196.13 136.088 199.851 139.809L201.265 138.395C197.92 135.049 196.04 130.511 196.04 125.78L194.04 125.78ZM199.851 139.809C203.572 143.53 208.618 145.62 213.88 145.62V143.62C209.149 143.62 204.611 141.74 201.265 138.395L199.851 139.809ZM213.88 145.62C219.142 145.62 224.188 143.53 227.909 139.809L226.495 138.395C223.149 141.74 218.612 143.62 213.88 143.62V145.62ZM227.909 139.809C231.63 136.088 233.72 131.042 233.72 125.78H231.72C231.72 130.511 229.84 135.049 226.495 138.395L227.909 139.809ZM233.72 125.78V76.8399H231.72V125.78H233.72ZM233.72 76.8406C233.723 73.2358 232.739 69.699 230.876 66.613L229.164 67.6467C230.839 70.4204 231.722 73.5992 231.72 76.8391L233.72 76.8406Z" fill="#041016" mask="url(#path-11-inside-2_414_962)"/>
<path d="M295.4 126.28H332V194.19H295.4V126.28Z" fill="#041016" stroke="#041016"/>
<path d="M313.74 107.45C308.877 107.45 304.214 109.381 300.775 112.818C297.336 116.255 295.403 120.918 295.4 125.78L313.74 107.45ZM313.74 107.45C318.602 107.45 323.266 109.381 326.705 112.818C330.144 116.255 332.077 120.918 332.08 125.78C332.08 130.644 330.148 135.309 326.708 138.748C323.269 142.188 318.604 144.12 313.74 144.12C308.876 144.12 304.211 142.188 300.772 138.748C297.332 135.309 295.4 130.644 295.4 125.78L313.74 107.45Z" fill="#041016" stroke="#041016"/>
<path d="M295.4 193.16C295.398 189.532 296.472 185.985 298.486 182.968C300.5 179.951 303.364 177.599 306.715 176.209C310.066 174.819 313.754 174.455 317.312 175.161C320.87 175.868 324.139 177.614 326.705 180.178C329.271 182.743 331.018 186.011 331.727 189.569C332.435 193.126 332.073 196.814 330.685 200.166C329.297 203.518 326.946 206.383 323.93 208.399C320.914 210.414 317.368 211.49 313.74 211.49C308.877 211.49 304.214 209.559 300.775 206.122C297.336 202.685 295.402 198.022 295.4 193.16Z" fill="#041016" stroke="#041016"/>
<path d="M195.5 193.16L195.5 193.16C195.498 189.532 196.572 185.985 198.586 182.968C200.6 179.951 203.464 177.599 206.815 176.209C210.166 174.819 213.854 174.455 217.412 175.161C220.97 175.868 224.239 177.614 226.805 180.178C229.371 182.743 231.118 186.011 231.827 189.569C232.535 193.126 232.173 196.814 230.785 200.166C229.397 203.518 227.046 206.383 224.03 208.399C221.014 210.414 217.468 211.49 213.84 211.49H213.84C211.432 211.491 209.047 211.018 206.822 210.098C204.597 209.177 202.575 207.827 200.872 206.125C199.169 204.423 197.818 202.401 196.896 200.177C195.974 197.952 195.5 195.568 195.5 193.16Z" fill="#041016" stroke="#041016"/>
</svg>
