<svg width="969" height="296" viewBox="0 0 969 296" fill="none" xmlns="http://www.w3.org/2000/svg">
<path d="M133.583 133.522L133.585 133.522C138.484 132.037 144.111 132.085 149.678 132.918C155.066 133.725 160.43 135.272 165.077 136.912L177.43 102.383C143.601 90.4119 119.116 95.9085 103.07 109.125C86.9242 122.424 79.23 143.616 79.22 163L133.583 133.522ZM133.583 133.522C126.031 135.849 121.614 142.006 119.09 148.133C116.567 154.261 115.9 160.445 115.9 163C115.9 167.864 113.968 172.529 110.528 175.968C107.089 179.408 102.424 181.34 97.56 181.34C92.6959 181.34 88.031 179.408 84.5916 175.968C81.1523 172.529 79.22 167.864 79.22 163L133.583 133.522Z" fill="#237BB1" stroke="#237BB1"/>
<path d="M153.43 119.83L153.43 119.83C153.428 116.202 154.502 112.655 156.516 109.638C158.53 106.621 161.394 104.268 164.745 102.879C168.096 101.489 171.784 101.125 175.342 101.831C178.9 102.538 182.169 104.284 184.735 106.848C187.301 109.413 189.048 112.681 189.757 116.238C190.465 119.796 190.103 123.484 188.715 126.836C187.327 130.188 184.976 133.053 181.96 135.068C178.944 137.084 175.398 138.16 171.77 138.16H171.77C169.362 138.161 166.977 137.688 164.752 136.767C162.527 135.847 160.505 134.497 158.802 132.795C157.099 131.092 155.748 129.071 154.826 126.847C153.904 124.622 153.43 122.238 153.43 119.83Z" fill="#237BB1" stroke="#237BB1"/>
<path d="M115.9 113.91V227.68H79.22V113.91C79.22 109.046 81.1522 104.381 84.5916 100.942C88.031 97.5023 92.6959 95.5701 97.56 95.5701C102.424 95.5701 107.089 97.5023 110.528 100.942C113.968 104.381 115.9 109.046 115.9 113.91Z" fill="#237BB1" stroke="#237BB1"/>
<mask id="path-4-inside-1_412_893" fill="white">
<path d="M112.41 102.31C89.51 114.39 78.73 140 78.72 163C78.72 167.997 80.7049 172.789 84.2381 176.322C87.7713 179.855 92.5633 181.84 97.56 181.84C102.557 181.84 107.349 179.855 110.882 176.322C114.415 172.789 116.4 167.997 116.4 163V113.91C116.402 109.705 114.993 105.621 112.4 102.31"/>
</mask>
<path d="M112.41 102.31C89.51 114.39 78.73 140 78.72 163C78.72 167.997 80.7049 172.789 84.2381 176.322C87.7713 179.855 92.5633 181.84 97.56 181.84C102.557 181.84 107.349 179.855 110.882 176.322C114.415 172.789 116.4 167.997 116.4 163V113.91C116.402 109.705 114.993 105.621 112.4 102.31" fill="#237BB1"/>
<path d="M78.72 163L77.72 163V163H78.72ZM116.4 113.91L115.4 113.91V113.91H116.4ZM111.943 101.426C88.6283 113.725 77.7301 139.739 77.72 163L79.72 163C79.7299 140.261 90.3917 115.056 112.877 103.195L111.943 101.426ZM77.72 163C77.72 168.262 79.8102 173.308 83.531 177.029L84.9452 175.615C81.5995 172.269 79.72 167.732 79.72 163H77.72ZM83.531 177.029C87.2517 180.75 92.2981 182.84 97.56 182.84V180.84C92.8285 180.84 88.2908 178.96 84.9452 175.615L83.531 177.029ZM97.56 182.84C102.822 182.84 107.868 180.75 111.589 177.029L110.175 175.615C106.829 178.96 102.291 180.84 97.56 180.84V182.84ZM111.589 177.029C115.31 173.308 117.4 168.262 117.4 163H115.4C115.4 167.732 113.52 172.269 110.175 175.615L111.589 177.029ZM117.4 163V113.91H115.4V163H117.4ZM117.4 113.91C117.402 109.482 115.918 105.18 113.187 101.693L111.613 102.927C114.068 106.061 115.401 109.928 115.4 113.91L117.4 113.91Z" fill="#237BB1" mask="url(#path-4-inside-1_412_893)"/>
<path d="M115.9 228.3C115.9 238.429 107.689 246.64 97.56 246.64C87.4311 246.64 79.22 238.429 79.22 228.3C79.22 218.171 87.4311 209.96 97.56 209.96C107.689 209.96 115.9 218.171 115.9 228.3Z" fill="#237BB1" stroke="#237BB1"/>
<path d="M322.577 202.381L347.062 229.699C339.853 236.044 331.578 241.066 322.62 244.534L322.617 244.535C313.53 248.109 303.861 249.972 294.097 250.03L294.096 250.03C284.582 250.099 275.119 248.645 266.064 245.724C257.657 242.98 249.814 238.74 242.913 233.21C238.487 229.646 234.507 225.562 231.057 221.047C226.529 215.091 222.923 208.488 220.36 201.459C216.989 192.116 215.263 182.26 215.259 172.33L251.917 172.291C251.918 178.57 253.147 184.789 255.537 190.599C257.317 194.984 259.97 198.96 263.337 202.286C266.703 205.613 270.711 208.219 275.118 209.946L275.12 209.947C281.185 212.285 287.645 213.43 294.144 213.32L294.2 213.32L294.208 213.32C299.408 213.239 304.551 212.211 309.383 210.286C314.204 208.429 318.667 205.754 322.577 202.381Z" fill="#237BB1" stroke="#237BB1"/>
<mask id="path-8-inside-2_412_893" fill="white">
<path d="M290.4 93.0901H290.31C249.04 93.0901 214.73 128.42 214.74 171.79H252.42C252.42 149.01 270.03 130.79 290.33 130.79C307.03 130.79 319.39 139.37 325.39 152.98L366.86 171.81C366.86 127.91 335.13 93.1101 290.4 93.1101"/>
</mask>
<path d="M290.4 93.0901H290.31C249.04 93.0901 214.73 128.42 214.74 171.79H252.42C252.42 149.01 270.03 130.79 290.33 130.79C307.03 130.79 319.39 139.37 325.39 152.98L366.86 171.81C366.86 127.91 335.13 93.1101 290.4 93.1101" fill="#237BB1"/>
<path d="M214.74 171.79L213.74 171.79L213.74 172.79H214.74V171.79ZM252.42 171.79V172.79H253.42V171.79H252.42ZM325.39 152.98L324.475 153.383L324.629 153.733L324.977 153.891L325.39 152.98ZM366.86 171.81L366.447 172.721L367.86 173.362V171.81H366.86ZM290.4 92.0901H290.31V94.0901H290.4V92.0901ZM290.31 92.0901C248.453 92.0901 213.73 127.903 213.74 171.79L215.74 171.79C215.73 128.937 249.627 94.0901 290.31 94.0901V92.0901ZM214.74 172.79H252.42V170.79H214.74V172.79ZM253.42 171.79C253.42 149.501 270.642 131.79 290.33 131.79V129.79C269.418 129.79 251.42 148.52 251.42 171.79H253.42ZM290.33 131.79C306.637 131.79 318.636 140.139 324.475 153.383L326.305 152.577C320.144 138.601 307.423 129.79 290.33 129.79V131.79ZM324.977 153.891L366.447 172.721L367.273 170.9L325.803 152.07L324.977 153.891ZM367.86 171.81C367.86 127.403 335.727 92.1101 290.4 92.1101V94.1101C334.533 94.1101 365.86 128.417 365.86 171.81H367.86Z" fill="#237BB1" mask="url(#path-8-inside-2_412_893)"/>
<path d="M220.615 158.868C224.054 155.431 228.718 153.5 233.58 153.5C237.208 153.5 240.754 154.576 243.77 156.592C246.786 158.607 249.137 161.472 250.525 164.824C251.913 168.176 252.275 171.864 251.567 175.422C250.858 178.979 249.111 182.247 246.545 184.812C243.979 187.376 240.71 189.122 237.152 189.829C233.594 190.535 229.906 190.171 226.555 188.781C223.204 187.392 220.34 185.039 218.326 182.022C216.312 179.005 215.238 175.458 215.24 171.83C215.243 166.968 217.176 162.306 220.615 158.868Z" fill="#237BB1" stroke="#237BB1"/>
<path d="M282.848 153.5L282.848 153.5H282.86H325.107L347.117 190.17H282.86V190.17L282.848 190.17C280.405 190.227 277.975 189.794 275.701 188.898C273.428 188.002 271.356 186.66 269.608 184.952C267.86 183.244 266.471 181.204 265.523 178.951C264.574 176.698 264.086 174.279 264.086 171.835C264.086 169.391 264.574 166.972 265.523 164.719C266.471 162.467 267.86 160.426 269.608 158.718C271.356 157.01 273.428 155.669 275.701 154.772C277.975 153.876 280.405 153.444 282.848 153.5Z" fill="#237BB1" stroke="#237BB1"/>
<path d="M348 153.5L348 153.5C352.857 153.497 357.516 155.422 360.954 158.852C364.393 162.281 366.33 166.935 366.34 171.791C366.341 174.2 365.868 176.585 364.947 178.81C364.025 181.036 362.675 183.058 360.971 184.761C359.268 186.465 357.246 187.815 355.02 188.737C352.795 189.658 350.409 190.131 348.001 190.13C343.148 190.125 338.495 188.195 335.062 184.765C331.63 181.335 329.698 176.684 329.69 171.831C329.738 165.545 328.533 159.313 326.146 153.5L348 153.5Z" fill="#237BB1" stroke="#237BB1"/>
<path d="M316.81 215.74C316.81 212.112 317.886 208.566 319.902 205.55C321.917 202.534 324.782 200.183 328.134 198.795C331.486 197.407 335.174 197.045 338.732 197.753C342.289 198.461 345.557 200.209 348.122 202.775C350.686 205.341 352.432 208.61 353.139 212.168C353.845 215.726 353.481 219.414 352.091 222.765C350.702 226.116 348.349 228.98 345.332 230.994C342.315 233.008 338.768 234.082 335.14 234.08C330.278 234.077 325.616 232.144 322.178 228.705C318.741 225.266 316.81 220.602 316.81 215.74Z" fill="#237BB1" stroke="#237BB1"/>
<path d="M414.57 246.15C409.706 246.15 405.041 244.218 401.602 240.778C398.162 237.339 396.23 232.674 396.23 227.81V111.61C396.23 106.746 398.162 102.081 401.602 98.6417C405.041 95.2023 409.706 93.27 414.57 93.27C419.434 93.27 424.099 95.2023 427.538 98.6417C430.978 102.081 432.91 106.746 432.91 111.61V227.81C432.907 232.673 430.974 237.337 427.535 240.775C424.096 244.214 419.433 246.147 414.57 246.15Z" fill="#237BB1" stroke="#237BB1"/>
<path d="M433.91 111.611C433.914 108.274 433.048 104.996 431.401 102.101C476.376 77.6116 532.444 109.018 532.808 160.05H496.127C496.083 157.206 495.625 154.383 494.767 151.669L494.766 151.668C489.476 135.034 473.982 128.735 459.876 130.835C448.102 132.588 437.192 140.21 433.91 152.627L433.91 111.611ZM433.91 111.611L433.41 111.61M433.91 111.611L433.91 111.61H433.41M433.41 111.61C433.414 108.358 432.569 105.163 430.963 102.341L433.41 111.61ZM533.308 160.05C532.944 108.611 476.439 76.9951 431.149 101.669L533.308 160.05Z" fill="#237BB1" stroke="#237BB1"/>
<mask id="path-16-inside-3_412_893" fill="white">
<path d="M430.71 101.9C421.559 106.969 413.691 114.068 407.71 122.65C399.931 133.757 395.762 146.99 395.77 160.55C395.77 165.547 397.755 170.339 401.288 173.872C404.821 177.405 409.613 179.39 414.61 179.39C419.607 179.39 424.399 177.405 427.932 173.872C431.465 170.339 433.45 165.547 433.45 160.55V111.61C433.453 108.188 432.519 104.83 430.75 101.9"/>
</mask>
<path d="M430.71 101.9C421.559 106.969 413.691 114.068 407.71 122.65C399.931 133.757 395.762 146.99 395.77 160.55C395.77 165.547 397.755 170.339 401.288 173.872C404.821 177.405 409.613 179.39 414.61 179.39C419.607 179.39 424.399 177.405 427.932 173.872C431.465 170.339 433.45 165.547 433.45 160.55V111.61C433.453 108.188 432.519 104.83 430.75 101.9" fill="#237BB1"/>
<path d="M407.71 122.65L408.529 123.224L408.53 123.222L407.71 122.65ZM395.77 160.55H396.77L396.77 160.549L395.77 160.55ZM433.45 111.61L432.45 111.609V111.61H433.45ZM430.225 101.025C420.941 106.169 412.958 113.37 406.89 122.078L408.53 123.222C414.425 114.765 422.178 107.77 431.195 102.775L430.225 101.025ZM406.891 122.076C398.994 133.351 394.762 146.785 394.77 160.55L396.77 160.549C396.762 147.195 400.868 134.162 408.529 123.224L406.891 122.076ZM394.77 160.55C394.77 165.812 396.86 170.858 400.581 174.579L401.995 173.165C398.65 169.819 396.77 165.281 396.77 160.55H394.77ZM400.581 174.579C404.302 178.3 409.348 180.39 414.61 180.39V178.39C409.879 178.39 405.341 176.51 401.995 173.165L400.581 174.579ZM414.61 180.39C419.872 180.39 424.918 178.3 428.639 174.579L427.225 173.165C423.879 176.51 419.341 178.39 414.61 178.39V180.39ZM428.639 174.579C432.36 170.858 434.45 165.812 434.45 160.55H432.45C432.45 165.281 430.57 169.819 427.225 173.165L428.639 174.579ZM434.45 160.55V111.61H432.45V160.55H434.45ZM434.45 111.611C434.453 108.006 433.469 104.469 431.606 101.383L429.894 102.417C431.569 105.19 432.452 108.369 432.45 111.609L434.45 111.611Z" fill="#237BB1" mask="url(#path-16-inside-3_412_893)"/>
<path d="M496.13 161.05H532.73V228.96H496.13V161.05Z" fill="#237BB1" stroke="#237BB1"/>
<path d="M514.47 142.22C509.607 142.22 504.944 144.151 501.505 147.588C498.066 151.025 496.133 155.688 496.13 160.55L514.47 142.22ZM514.47 142.22C519.332 142.22 523.996 144.151 527.435 147.588C530.874 151.026 532.807 155.688 532.81 160.55C532.81 165.414 530.878 170.079 527.438 173.518C523.999 176.958 519.334 178.89 514.47 178.89C509.606 178.89 504.941 176.958 501.502 173.518C498.062 170.079 496.13 165.414 496.13 160.55L514.47 142.22Z" fill="#237BB1" stroke="#237BB1"/>
<path d="M496.13 227.93C496.128 224.302 497.202 220.755 499.216 217.738C501.23 214.721 504.094 212.369 507.445 210.979C510.796 209.589 514.484 209.225 518.042 209.931C521.6 210.638 524.869 212.384 527.435 214.948C530.001 217.513 531.748 220.781 532.457 224.339C533.165 227.896 532.803 231.584 531.415 234.936C530.027 238.288 527.676 241.153 524.66 243.169C521.644 245.184 518.098 246.26 514.47 246.26C509.607 246.26 504.944 244.329 501.505 240.892C498.066 237.455 496.132 232.792 496.13 227.93Z" fill="#237BB1" stroke="#237BB1"/>
<path d="M396.23 227.93L396.23 227.93C396.228 224.302 397.302 220.755 399.316 217.738C401.33 214.721 404.194 212.369 407.545 210.979C410.896 209.589 414.584 209.225 418.142 209.931C421.7 210.638 424.969 212.384 427.535 214.948C430.101 217.513 431.848 220.781 432.557 224.339C433.265 227.896 432.903 231.584 431.515 234.936C430.127 238.288 427.776 241.153 424.76 243.169C421.744 245.184 418.198 246.26 414.57 246.26H414.57C412.162 246.261 409.777 245.788 407.552 244.868C405.327 243.947 403.305 242.597 401.602 240.895C399.899 239.193 398.548 237.171 397.626 234.947C396.704 232.722 396.23 230.338 396.23 227.93Z" fill="#237BB1" stroke="#237BB1"/>
<path d="M679.41 58.3401H716.09V228.17H679.41V58.3401Z" fill="#237BB1" stroke="#237BB1"/>
<mask id="path-23-inside-4_412_893" fill="white">
<path d="M678.91 105.89C666.818 98.1257 652.75 93.9987 638.38 94C625.784 94.0322 613.395 97.2002 602.33 103.218C591.265 109.236 581.872 117.914 575 128.47C541.25 179.66 577 249.47 638.37 249.47C653.423 249.47 668.127 244.94 680.57 236.47L678.91 105.89ZM638.41 211.8C617.13 211.8 599.8 193.94 599.79 171.8C599.79 132.38 649.04 116.94 670.33 149.25C687.82 175.79 669.33 211.83 638.41 211.84"/>
</mask>
<path d="M678.91 105.89C666.818 98.1257 652.75 93.9987 638.38 94C625.784 94.0322 613.395 97.2002 602.33 103.218C591.265 109.236 581.872 117.914 575 128.47C541.25 179.66 577 249.47 638.37 249.47C653.423 249.47 668.127 244.94 680.57 236.47L678.91 105.89ZM638.41 211.8C617.13 211.8 599.8 193.94 599.79 171.8C599.79 132.38 649.04 116.94 670.33 149.25C687.82 175.79 669.33 211.83 638.41 211.84" fill="#237BB1"/>
<path d="M678.91 105.89L679.91 105.877L679.903 105.339L679.45 105.049L678.91 105.89ZM638.38 94L638.38 93L638.378 93L638.38 94ZM575 128.47L575.835 129.02L575.838 129.016L575 128.47ZM638.37 249.47L638.37 250.47L638.37 250.47L638.37 249.47ZM680.57 236.47L681.133 237.297L681.577 236.994L681.57 236.457L680.57 236.47ZM599.79 171.8L598.79 171.8L598.79 171.8L599.79 171.8ZM670.33 149.25L669.495 149.8L669.495 149.8L670.33 149.25ZM679.45 105.049C667.197 97.1807 652.942 92.9987 638.38 93L638.38 95C652.559 94.9987 666.439 99.0707 678.37 106.731L679.45 105.049ZM638.378 93C625.616 93.0326 613.063 96.2423 601.852 102.34L602.808 104.097C613.727 98.158 625.953 95.0318 638.383 95L638.378 93ZM601.852 102.34C590.641 108.437 581.125 117.23 574.162 127.924L575.838 129.016C582.62 118.599 591.889 110.035 602.808 104.097L601.852 102.34ZM574.165 127.92C540 179.739 576.162 250.47 638.37 250.47V248.47C577.838 248.47 542.5 179.581 575.835 129.02L574.165 127.92ZM638.37 250.47C653.623 250.47 668.523 245.88 681.133 237.297L680.007 235.643C667.73 244 653.222 248.47 638.37 248.47L638.37 250.47ZM681.57 236.457L679.91 105.877L677.91 105.903L679.57 236.483L681.57 236.457ZM638.41 210.8C617.714 210.8 600.8 193.42 600.79 171.8L598.79 171.8C598.8 194.46 616.546 212.8 638.41 212.8V210.8ZM600.79 171.8C600.79 133.299 648.791 118.38 669.495 149.8L671.165 148.7C649.289 115.5 598.79 131.461 598.79 171.8H600.79ZM669.495 149.8C686.58 175.726 668.474 210.83 638.41 210.84L638.41 212.84C670.186 212.83 689.06 175.854 671.165 148.7L669.495 149.8Z" fill="#237BB1" mask="url(#path-23-inside-4_412_893)"/>
<path d="M679.41 106.809C725.008 136.695 726.02 204.669 680.811 235.767C680.778 235.699 680.746 235.634 680.715 235.572C680.57 235.277 680.447 235.027 680.328 234.724C680.139 234.245 679.98 233.667 679.849 232.681C679.584 230.685 679.445 227.097 679.379 219.447C679.305 210.864 679.324 197.209 679.355 175.032C679.379 157.904 679.409 135.693 679.41 106.809Z" fill="#237BB1" stroke="#237BB1"/>
<path d="M682.501 47.6509C680.486 50.6668 679.41 54.2125 679.41 57.8397L682.501 47.6509ZM682.501 47.6509C684.516 44.6349 687.38 42.2842 690.732 40.8961M682.501 47.6509L690.732 40.8961M690.732 40.8961C694.083 39.5079 697.77 39.1448 701.328 39.8524M690.732 40.8961L701.328 39.8524M701.328 39.8524C704.885 40.5601 708.153 42.3068 710.718 44.8717M701.328 39.8524L710.718 44.8717M710.718 44.8717C713.283 47.4366 715.03 50.7044 715.738 54.2621M710.718 44.8717L715.738 54.2621M715.738 54.2621C716.445 57.8197 716.082 61.5072 714.694 64.8584M715.738 54.2621L714.694 64.8584M714.694 64.8584C713.306 68.2096 710.955 71.0739 707.939 73.0892M714.694 64.8584L707.939 73.0892M707.939 73.0892C704.923 75.1043 701.377 76.18 697.75 76.18M707.939 73.0892L697.75 76.18M697.75 76.18C692.887 76.1774 688.223 74.2443 684.785 70.8054C681.346 67.3666 679.413 62.7033 679.41 57.84L697.75 76.18Z" fill="#237BB1" stroke="#237BB1"/>
<path d="M679.41 228.79C679.408 225.162 680.482 221.615 682.496 218.598C684.51 215.581 687.374 213.228 690.725 211.839C694.076 210.449 697.764 210.085 701.322 210.791C704.88 211.498 708.149 213.244 710.715 215.808C713.281 218.373 715.028 221.641 715.737 225.198C716.445 228.756 716.083 232.444 714.695 235.796C713.307 239.148 710.956 242.013 707.94 244.028C704.924 246.044 701.378 247.12 697.75 247.12C692.888 247.12 688.224 245.189 684.785 241.752C681.346 238.314 679.412 233.652 679.41 228.79Z" fill="#237BB1" stroke="#237BB1"/>
<path d="M753.505 113.274H753.505L753.505 113.263C753.449 110.819 753.881 108.389 754.777 106.115C755.673 103.842 757.015 101.77 758.723 100.022C760.431 98.274 762.472 96.885 764.724 95.9368C766.977 94.9885 769.396 94.5 771.84 94.5C774.284 94.5 776.703 94.9885 778.956 95.9368C781.208 96.885 783.249 98.274 784.957 100.022C786.665 101.77 788.007 103.842 788.903 106.115C789.799 108.389 790.231 110.819 790.175 113.263L790.175 113.263V113.274V229.474C790.175 234.336 788.244 239 784.807 242.439C781.369 245.878 776.707 247.811 771.845 247.814C769.436 247.814 767.052 247.34 764.827 246.418C762.601 245.496 760.58 244.145 758.877 242.442C757.174 240.739 755.823 238.718 754.901 236.492C753.979 234.267 753.505 231.882 753.505 229.474V113.274Z" fill="#237BB1" stroke="#237BB1"/>
<path d="M852.052 153.333L852.052 153.333C846.761 136.698 831.265 130.399 817.157 132.5C805.38 134.253 794.468 141.874 791.185 154.292V113.275C791.192 109.939 790.329 106.661 788.686 103.765C833.661 79.2755 889.719 110.681 890.083 161.714H853.412C853.368 158.87 852.91 156.047 852.052 153.333Z" fill="#237BB1" stroke="#237BB1"/>
<mask id="path-30-inside-5_412_893" fill="white">
<path d="M787.985 103.564C778.834 108.633 770.966 115.732 764.985 124.314C757.206 135.421 753.037 148.654 753.045 162.214C752.987 164.724 753.432 167.22 754.352 169.556C755.273 171.892 756.651 174.02 758.406 175.816C760.16 177.611 762.256 179.038 764.57 180.012C766.884 180.986 769.369 181.488 771.88 181.488C774.391 181.488 776.876 180.986 779.19 180.012C781.504 179.038 783.6 177.611 785.354 175.816C787.109 174.02 788.487 171.892 789.408 169.556C790.328 167.22 790.773 164.724 790.715 162.214V113.274C790.721 109.853 789.79 106.495 788.025 103.564"/>
</mask>
<path d="M787.985 103.564C778.834 108.633 770.966 115.732 764.985 124.314C757.206 135.421 753.037 148.654 753.045 162.214C752.987 164.724 753.432 167.22 754.352 169.556C755.273 171.892 756.651 174.02 758.406 175.816C760.16 177.611 762.256 179.038 764.57 180.012C766.884 180.986 769.369 181.488 771.88 181.488C774.391 181.488 776.876 180.986 779.19 180.012C781.504 179.038 783.6 177.611 785.354 175.816C787.109 174.02 788.487 171.892 789.408 169.556C790.328 167.22 790.773 164.724 790.715 162.214V113.274C790.721 109.853 789.79 106.495 788.025 103.564" fill="#237BB1"/>
<path d="M764.985 124.314L765.804 124.888L765.805 124.886L764.985 124.314ZM753.045 162.214L754.045 162.237L754.045 162.225L754.045 162.213L753.045 162.214ZM771.88 181.488V182.488V181.488ZM790.715 162.214H789.715V162.225L789.715 162.237L790.715 162.214ZM790.715 113.274L789.715 113.272V113.274H790.715ZM787.5 102.689C778.216 107.833 770.233 115.034 764.165 123.742L765.805 124.886C771.7 116.429 779.453 109.434 788.47 104.439L787.5 102.689ZM764.166 123.74C756.269 135.015 752.037 148.449 752.045 162.215L754.045 162.213C754.037 148.859 758.143 135.826 765.804 124.888L764.166 123.74ZM752.045 162.191C751.984 164.834 752.452 167.463 753.422 169.923L755.283 169.189C754.411 166.977 753.99 164.614 754.045 162.237L752.045 162.191ZM753.422 169.923C754.391 172.382 755.843 174.624 757.69 176.514L759.121 175.117C757.459 173.416 756.154 171.401 755.283 169.189L753.422 169.923ZM757.69 176.514C759.538 178.405 761.745 179.908 764.182 180.934L764.958 179.09C762.767 178.168 760.782 176.817 759.121 175.117L757.69 176.514ZM764.182 180.934C766.619 181.96 769.236 182.488 771.88 182.488V180.488C769.503 180.488 767.149 180.013 764.958 179.09L764.182 180.934ZM771.88 182.488C774.524 182.488 777.141 181.96 779.578 180.934L778.802 179.09C776.611 180.013 774.257 180.488 771.88 180.488V182.488ZM779.578 180.934C782.015 179.908 784.222 178.405 786.07 176.514L784.639 175.117C782.978 176.817 780.993 178.168 778.802 179.09L779.578 180.934ZM786.07 176.514C787.918 174.624 789.369 172.382 790.338 169.923L788.478 169.189C787.606 171.401 786.301 173.416 784.639 175.117L786.07 176.514ZM790.338 169.923C791.308 167.463 791.776 164.834 791.715 162.191L789.715 162.237C789.77 164.614 789.349 166.977 788.478 169.189L790.338 169.923ZM791.715 162.214V113.274H789.715V162.214H791.715ZM791.715 113.276C791.721 109.672 790.741 106.135 788.882 103.048L787.168 104.08C788.84 106.855 789.72 110.033 789.715 113.272L791.715 113.276Z" fill="#237BB1" mask="url(#path-30-inside-5_412_893)"/>
<path d="M853.405 162.714H890.005V230.624H853.405V162.714Z" fill="#237BB1" stroke="#237BB1"/>
<path d="M871.745 143.884H871.745C876.607 143.884 881.271 145.815 884.71 149.252C888.149 152.69 890.082 157.352 890.085 162.214C890.085 167.078 888.153 171.743 884.713 175.182C881.274 178.622 876.609 180.554 871.745 180.554C866.881 180.554 862.216 178.622 858.777 175.182C855.337 171.743 853.405 167.078 853.405 162.214C853.405 159.806 853.879 157.422 854.801 155.197C855.723 152.973 857.074 150.952 858.777 149.249C860.48 147.547 862.502 146.197 864.727 145.277C866.952 144.356 869.337 143.883 871.745 143.884Z" fill="#237BB1" stroke="#237BB1"/>
<path d="M890.085 229.594C890.085 239.723 881.874 247.934 871.745 247.934C861.616 247.934 853.405 239.723 853.405 229.594C853.405 219.465 861.616 211.254 871.745 211.254C881.874 211.254 890.085 219.465 890.085 229.594Z" fill="#237BB1" stroke="#237BB1"/>
<path d="M790.185 229.594C790.185 239.723 781.974 247.934 771.845 247.934C761.716 247.934 753.505 239.723 753.505 229.594C753.505 219.465 761.716 211.254 771.845 211.254C781.974 211.254 790.185 219.465 790.185 229.594Z" fill="#237BB1" stroke="#237BB1"/>
<path d="M965 4H4V292H965V4Z" stroke="#237BB1" stroke-width="6.91" stroke-miterlimit="10"/>
</svg>
